<?xml version='1.0' encoding='UTF-8'?>
<svg x="0px" y="0px" viewBox="0 0 32 32" version="1.1" xmlns="http://www.w3.org/2000/svg" xmlns:xlink="http://www.w3.org/1999/xlink" xml:space="preserve" id="Edit_Comment" style="enable-background:new 0 0 32 32">
  <style type="text/css">
	.Blue{fill:#1177D7;}
	.Yellow{fill:#FFB115;}
</style>
  <path d="M3,22h3v6l6-6h3.2L26,11.2V7c0-0.6-0.4-1-1-1H3C2.4,6,2,6.4,2,7v14C2,21.6,2.4,22,3,22z" class="Yellow" />
  <path d="M29,19l-8,8l-4-4l8-8L29,19z M30,18l1.7-1.7c0.4-0.4,0.4-1,0-1.3l-2.7-2.7c-0.4-0.4-1-0.4-1.3,0L26,14L30,18z   M16,24v4h4L16,24z" class="Blue" />
</svg>