<?xml version='1.0' encoding='UTF-8'?>
<svg x="0px" y="0px" viewBox="0 0 32 32" version="1.1" xmlns="http://www.w3.org/2000/svg" xmlns:xlink="http://www.w3.org/1999/xlink" xml:space="preserve" id="Layer_1" style="enable-background:new 0 0 32 32">
  <style type="text/css">
	.Black{fill:#727272;}
	.Blue{fill:#1177D7;}
	.Green{fill:#039C23;}
	.Yellow{fill:#FFB115;}
	.Red{fill:#D11C1C;}
	.White{fill:#FFFFFF;}
	.st0{opacity:0.5;}
	.st1{opacity:0.75;}
	.st2{display:none;}
	.st3{display:inline;fill:#1177D7;}
	.st4{display:inline;fill:#727272;}
</style>
  <g id="FitBoundsToGrid">
    <path d="M16,4l-4-4h8L16,4z M0,12v8l4-4L0,12z M12,32h8l-4-4L12,32z M28,16l4,4v-8L28,16z" class="Black" />
    <g class="st1">
      <path d="M26,8h4V6h-4V2h-2v4H8V2H6v4H2v2h4v16H2v2h4v4h2v-4h16v4h2v-4h4v-2h-4V8z M24,24H8V8h16V24z" class="Black" />
    </g>
    <path d="M6,6v20h20V6H6z" class="Blue" />
  </g>
</svg>