<?xml version='1.0' encoding='UTF-8'?>
<svg x="0px" y="0px" viewBox="0 0 32 32" version="1.1" xmlns="http://www.w3.org/2000/svg" xmlns:xlink="http://www.w3.org/1999/xlink" xml:space="preserve" id="Layer_1" style="enable-background:new 0 0 32 32">
  <style type="text/css">
	.Green{fill:#039C23;}
	.Black{fill:#727272;}
	.Red{fill:#D11C1C;}
	.Yellow{fill:#FFB115;}
	.Blue{fill:#1177D7;}
	.White{fill:#FFFFFF;}
	.st0{opacity:0.5;}
	.st1{opacity:0.75;}
</style>
  <g id="ItemTypeChecked">
    <g>
      <g>
        <rect x="20" y="8" width="10" height="4" class="Black" />
        <rect x="20" y="22" width="10" height="4" class="Black" />
        <path d="M15,18H3c-0.5,0-1,0.5-1,1v12c0,0.5,0.5,1,1,1h12c0.5,0,1-0.5,1-1V19C16,18.5,15.5,18,15,18z M14,30H4V20     h10V30z" class="Black" />
        <path d="M14,10.8V14H4V4h8.2l2-2H3C2.5,2,2,2.5,2,3v12c0,0.5,0.5,1,1,1h12c0.5,0,1-0.5,1-1V8.8L14,10.8z" class="Black" />
      </g>
      <g>
        <rect x="20" y="8" width="10" height="4" class="Black" />
        <rect x="20" y="22" width="10" height="4" class="Black" />
        <path d="M15,18H3c-0.5,0-1,0.5-1,1v12c0,0.5,0.5,1,1,1h12c0.5,0,1-0.5,1-1V19C16,18.5,15.5,18,15,18z M14,30H4V20     h10V30z" class="Black" />
        <path d="M14,10.8V14H4V4h8.2l2-2H3C2.5,2,2,2.5,2,3v12c0,0.5,0.5,1,1,1h12c0.5,0,1-0.5,1-1V8.8L14,10.8z" class="Black" />
      </g>
    </g>
    <polygon points="6,5 6,8 10,12 18,4 18,1 10,9  " class="Green" />
  </g>
</svg>